<svg width="250" height="44" viewBox="0 0 250 44" fill="none" xmlns="http://www.w3.org/2000/svg">
  <path d="M38.8842 15.5859H29.8629C29.6982 14.4188 29.3617 13.3821 28.8537 12.4759C28.3456 11.5559 27.6934 10.7732 26.897 10.1278C26.1006 9.48248 25.1806 8.98816 24.1371 8.64489C23.1072 8.30161 21.9882 8.12997 20.7798 8.12997C18.5966 8.12997 16.6948 8.67235 15.0746 9.7571C13.4543 10.8281 12.1979 12.3935 11.3054 14.4531C10.4129 16.4991 9.96662 18.9844 9.96662 21.9091C9.96662 24.9162 10.4129 27.4427 11.3054 29.4886C12.2116 31.5346 13.4749 33.0793 15.0952 34.1229C16.7154 35.1664 18.5897 35.6882 20.718 35.6882C21.9126 35.6882 23.018 35.5303 24.0341 35.2145C25.0639 34.8987 25.977 34.4387 26.7734 33.8345C27.5698 33.2166 28.2289 32.4683 28.7507 31.5895C29.2862 30.7107 29.657 29.7083 29.8629 28.5824L38.8842 28.6236C38.6508 30.5597 38.0672 32.4271 37.1335 34.2259C36.2135 36.0109 34.9709 37.6106 33.4055 39.0249C31.8539 40.4254 30.0002 41.5376 27.8445 42.3615C25.7024 43.1716 23.2789 43.5767 20.5739 43.5767C16.8116 43.5767 13.4474 42.7254 10.4815 41.0227C7.52936 39.3201 5.19508 36.8554 3.47869 33.6286C1.77604 30.4018 0.924716 26.4953 0.924716 21.9091C0.924716 17.3092 1.78977 13.3958 3.51989 10.169C5.25 6.94223 7.59801 4.48437 10.5639 2.79545C13.5298 1.0928 16.8665 0.241476 20.5739 0.241476C23.018 0.241476 25.2836 0.584752 27.3707 1.27131C29.4716 1.95786 31.3322 2.96023 32.9524 4.27841C34.5727 5.58286 35.8909 7.18253 36.907 9.07741C37.9368 10.9723 38.5959 13.1418 38.8842 15.5859ZM45.1147 43V11.3636H53.6211V16.8835H53.9506C54.5273 14.92 55.4954 13.437 56.8548 12.4347C58.2141 11.4186 59.7795 10.9105 61.5508 10.9105C61.9902 10.9105 62.4639 10.938 62.9719 10.9929C63.48 11.0478 63.9263 11.1233 64.3107 11.2195V19.005C63.8988 18.8814 63.329 18.7715 62.6012 18.6754C61.8735 18.5793 61.2075 18.5312 60.6033 18.5312C59.3126 18.5312 58.1592 18.8127 57.1431 19.3757C56.1407 19.925 55.3443 20.6939 54.7539 21.6825C54.1772 22.6712 53.8888 23.8108 53.8888 25.1016V43H45.1147ZM81.6685 43.6179C78.4692 43.6179 75.7024 42.9382 73.3681 41.5788C71.0475 40.2057 69.2556 38.2971 67.9924 35.853C66.7291 33.3951 66.0975 30.5459 66.0975 27.3054C66.0975 24.0374 66.7291 21.1813 67.9924 18.7372C69.2556 16.2794 71.0475 14.3707 73.3681 13.0114C75.7024 11.6383 78.4692 10.9517 81.6685 10.9517C84.8678 10.9517 87.6278 11.6383 89.9483 13.0114C92.2826 14.3707 94.0814 16.2794 95.3446 18.7372C96.6079 21.1813 97.2395 24.0374 97.2395 27.3054C97.2395 30.5459 96.6079 33.3951 95.3446 35.853C94.0814 38.2971 92.2826 40.2057 89.9483 41.5788C87.6278 42.9382 84.8678 43.6179 81.6685 43.6179ZM81.7097 36.821C83.1652 36.821 84.3804 36.4091 85.3553 35.5852C86.3302 34.7476 87.0648 33.608 87.5591 32.1662C88.0672 30.7244 88.3212 29.0836 88.3212 27.2436C88.3212 25.4036 88.0672 23.7628 87.5591 22.321C87.0648 20.8793 86.3302 19.7396 85.3553 18.902C84.3804 18.0644 83.1652 17.6456 81.7097 17.6456C80.2405 17.6456 79.0047 18.0644 78.0023 18.902C77.0137 19.7396 76.2653 20.8793 75.7573 22.321C75.263 23.7628 75.0158 25.4036 75.0158 27.2436C75.0158 29.0836 75.263 30.7244 75.7573 32.1662C76.2653 33.608 77.0137 34.7476 78.0023 35.5852C79.0047 36.4091 80.2405 36.821 81.7097 36.821ZM108.393 43L99.7832 11.3636H108.66L113.562 32.6193H113.851L118.959 11.3636H127.671L132.861 32.4957H133.129L137.949 11.3636H146.805L138.216 43H128.927L123.49 23.1037H123.099L117.661 43H108.393ZM162.35 43.5149C159.948 43.5149 157.771 42.897 155.821 41.6612C153.885 40.4117 152.347 38.5786 151.208 36.1619C150.082 33.7315 149.519 30.7519 149.519 27.223C149.519 23.598 150.102 20.584 151.27 18.1811C152.437 15.7644 153.988 13.9588 155.924 12.7642C157.874 11.5559 160.009 10.9517 162.33 10.9517C164.101 10.9517 165.577 11.2538 166.758 11.858C167.953 12.4484 168.914 13.1899 169.642 14.0824C170.383 14.9612 170.946 15.8262 171.331 16.6776H171.598V0.818181H180.352V43H171.701V37.9332H171.331C170.919 38.812 170.335 39.6839 169.58 40.549C168.838 41.4003 167.87 42.1075 166.676 42.6705C165.495 43.2334 164.053 43.5149 162.35 43.5149ZM165.131 36.5327C166.545 36.5327 167.74 36.1482 168.715 35.3793C169.703 34.5966 170.459 33.505 170.98 32.1044C171.516 30.7038 171.784 29.063 171.784 27.1818C171.784 25.3007 171.523 23.6667 171.001 22.2798C170.479 20.893 169.724 19.822 168.735 19.0668C167.747 18.3116 166.545 17.9339 165.131 17.9339C163.689 17.9339 162.474 18.3253 161.485 19.108C160.497 19.8906 159.748 20.9754 159.24 22.3622C158.732 23.7491 158.478 25.3556 158.478 27.1818C158.478 29.0218 158.732 30.6489 159.24 32.0632C159.762 33.4638 160.511 34.5623 161.485 35.3587C162.474 36.1413 163.689 36.5327 165.131 36.5327ZM210.073 0.818181V43H201.154V0.818181H210.073ZM234.073 11.3636V17.9545H215.021V11.3636H234.073ZM219.346 3.78409H228.121V33.2784C228.121 34.0885 228.244 34.7202 228.491 35.1733C228.738 35.6127 229.082 35.9216 229.521 36.1001C229.974 36.2786 230.496 36.3679 231.086 36.3679C231.498 36.3679 231.91 36.3336 232.322 36.2649C232.734 36.1825 233.05 36.1207 233.27 36.0795L234.65 42.6087C234.21 42.746 233.592 42.9039 232.796 43.0824C232 43.2746 231.032 43.3913 229.892 43.4325C227.777 43.5149 225.924 43.2334 224.331 42.5881C222.752 41.9427 221.523 40.9403 220.644 39.581C219.765 38.2216 219.333 36.5052 219.346 34.4318V3.78409Z" fill="#4A4A4A"/>
  <path d="M244.917 43.5355C243.558 43.5355 242.391 43.0549 241.416 42.0938C240.454 41.1188 239.974 39.9517 239.974 38.5923C239.974 37.2467 240.454 36.0933 241.416 35.1321C242.391 34.1709 243.558 33.6903 244.917 33.6903C246.235 33.6903 247.389 34.1709 248.377 35.1321C249.366 36.0933 249.86 37.2467 249.86 38.5923C249.86 39.4986 249.627 40.3293 249.16 41.0845C248.707 41.826 248.11 42.4233 247.368 42.8764C246.627 43.3158 245.81 43.5355 244.917 43.5355Z" fill="#1CBC94"/>
</svg>
